<?xml version="1.0" encoding="UTF-8" standalone="no"?>
<!-- Created with Inkscape (http://www.inkscape.org/) -->

<svg
   version="1.1"
   id="svg2"
   width="181.75999"
   height="195.84"
   viewBox="0 0 181.75999 195.84"
   sodipodi:docname="scarab-graphic-1.svg"
   inkscape:version="1.1.2 (0a00cf5339, 2022-02-04)"
   xmlns:inkscape="http://www.inkscape.org/namespaces/inkscape"
   xmlns:sodipodi="http://sodipodi.sourceforge.net/DTD/sodipodi-0.dtd"
   xmlns="http://www.w3.org/2000/svg"
   xmlns:svg="http://www.w3.org/2000/svg">
  <defs
     id="defs6" />
  <sodipodi:namedview
     id="namedview4"
     pagecolor="#ffffff"
     bordercolor="#666666"
     borderopacity="1.0"
     inkscape:pageshadow="2"
     inkscape:pageopacity="0.0"
     inkscape:pagecheckerboard="0"
     showgrid="false"
     inkscape:zoom="3.0515982"
     inkscape:cx="-15.401766"
     inkscape:cy="188.26201"
     inkscape:window-width="1366"
     inkscape:window-height="707"
     inkscape:window-x="0"
     inkscape:window-y="0"
     inkscape:window-maximized="1"
     inkscape:current-layer="g8" />
  <g
     inkscape:groupmode="layer"
     inkscape:label="Image"
     id="g8">
    <path
       style="fill:#000000;stroke-width:0.106536"
       d="m 12.047666,195.646 c -0.699538,-0.25058 -1.20751,-0.72983 -1.530517,-1.44348 -0.224466,-0.49602 -0.246009,-0.68972 -0.237996,-2.14333 0.0076,-1.36188 0.0491,-1.74762 0.281461,-2.61014 0.228359,-0.8476 1.507991,-4.27726 2.059235,-5.51914 0.195477,-0.44039 0.688656,-0.65998 1.482414,-0.65998 0.491638,0 0.589372,0.0302 0.589372,0.18747 0,0.22677 -0.738395,1.71522 -1.782992,3.59448 -0.969707,1.74452 -1.18243,2.50621 -1.006829,3.60503 0.186028,1.16406 0.316158,1.52205 0.70193,1.93111 0.254967,0.27024 0.373153,0.5139 0.421883,0.86933 0.08916,0.65049 0.370091,1.08367 1.083961,1.67138 0.323528,0.26646 0.537759,0.51409 0.476999,0.55166 -0.06066,0.0378 -0.529277,0.0907 -1.041354,0.1183 -0.739541,0.0397 -1.047584,0.008 -1.497548,-0.15269 z m 34.28521,0.12208 c -0.561533,-0.0926 -0.558547,-0.13909 0.04089,-0.63243 0.722185,-0.59452 1.003034,-1.02599 1.092447,-1.67834 0.04804,-0.35036 0.166752,-0.59883 0.409047,-0.85572 0.672007,-0.71256 0.95486,-2.67413 0.555194,-3.85028 -0.100498,-0.29594 -0.522781,-1.13477 -0.938386,-1.86441 -0.947407,-1.66322 -1.691864,-3.1694 -1.691864,-3.42293 0,-0.16554 0.09082,-0.19426 0.612586,-0.19389 0.372057,1.2e-4 0.75659,0.0733 0.979329,0.18633 0.344542,0.175 0.423915,0.33109 1.310831,2.57757 1.336287,3.38468 1.499494,4.03589 1.510039,6.02506 0.0076,1.4632 -0.01285,1.64519 -0.243969,2.15648 -0.572458,1.26633 -1.910321,1.83757 -3.636129,1.55256 z M 27.049819,184.38372 c -0.692712,-0.21619 -3.313457,-1.5185 -4.349527,-2.16128 -4.094939,-2.54053 -6.199698,-6.15157 -6.934246,-11.89679 -0.293669,-2.29708 -0.516843,-8.47404 -0.343748,-9.51474 0.178885,-1.07546 0.551399,-1.77456 1.092718,-2.05073 0.743347,-0.3792 2.083447,-0.25928 4.728573,0.4238 4.223647,1.09043 4.239324,1.09859 5.323471,2.77153 0.751181,1.1591 1.157163,1.55935 2.311692,2.27894 0.448596,0.27968 0.85073,0.58994 0.893632,0.68965 0.236863,0.55049 0.14468,5.33968 -0.218797,11.36757 -0.08481,1.40629 -0.203641,3.50733 -0.264114,4.66897 -0.121625,2.33692 -0.22628,2.92052 -0.595264,3.31862 -0.291024,0.31407 -0.857753,0.34998 -1.644413,0.10431 z m 4.747765,-0.10431 c -0.369336,-0.39852 -0.491218,-1.05725 -0.600386,-3.24507 -0.05412,-1.08491 -0.169512,-3.1711 -0.256403,-4.63597 -0.373947,-6.30505 -0.464153,-10.92318 -0.224088,-11.47053 0.04286,-0.0979 0.49912,-0.4447 1.013911,-0.77106 1.089098,-0.69041 1.608976,-1.21924 2.235682,-2.27414 0.248882,-0.41897 0.660103,-0.95305 0.913815,-1.18693 0.524527,-0.48347 0.931982,-0.62449 4.368071,-1.51158 2.645126,-0.68293 3.985226,-0.803 4.728569,-0.4238 0.569375,0.29064 0.909967,0.97138 1.089423,2.17795 0.148309,0.99727 -0.02683,6.35781 -0.286148,8.74829 -0.688064,6.34734 -2.809921,10.02977 -7.353945,12.7626 -0.837929,0.50396 -3.35516,1.71523 -4.014484,1.93179 -0.775786,0.25474 -1.315268,0.22073 -1.614051,-0.10167 z m -19.343142,-1.35572 c 4.9e-5,-0.0151 0.0802,-0.38619 0.178129,-0.82564 0.140749,-0.63175 0.181455,-1.43463 0.194457,-3.83531 0.01247,-2.29361 0.06164,-3.32293 0.201222,-4.20817 0.461423,-2.92596 1.423778,-5.49366 1.819178,-4.8539 0.03402,0.0552 0.131792,0.69026 0.217247,1.41162 0.08549,0.72136 0.252246,1.81485 0.370583,2.42997 0.279798,1.45436 0.274205,1.63907 -0.105449,3.48492 -0.470419,2.2871 -0.562511,3.28671 -0.414588,4.50028 0.207345,1.70109 0.272353,1.53884 -0.650075,1.62255 -0.439639,0.0401 -0.93416,0.12359 -1.098932,0.18633 -0.268082,0.10205 -0.712003,0.15648 -0.71178,0.0873 z m 34.624188,-0.13833 c -0.263698,-0.0756 -0.761201,-0.14136 -1.105615,-0.14589 l -0.6262,-0.008 0.07351,-0.45275 c 0.329046,-2.02685 0.283465,-3.02888 -0.255723,-5.61967 -0.379994,-1.82593 -0.388683,-2.09752 -0.113159,-3.53696 0.11554,-0.60355 0.282407,-1.68775 0.37081,-2.4093 0.0884,-0.72155 0.188485,-1.35677 0.22235,-1.41161 0.229266,-0.37077 0.658273,0.33222 1.147336,1.88031 0.660926,2.0922 0.854211,3.71184 0.876174,7.34193 0.01323,2.21427 0.06013,3.18206 0.181304,3.75541 0.162633,0.76948 0.162407,0.77231 -0.06406,0.75848 -0.125027,-0.008 -0.443063,-0.0756 -0.706741,-0.15118 z M 0.21034374,173.09174 c -0.25557175,-0.68308 -0.27488514,-1.16818 -0.0762709,-1.91366 0.26297963,-0.98683 0.55707234,-1.43278 2.53585236,-3.84491 0.6292159,-0.76706 1.534859,-1.94162 2.0125386,-2.61014 0.4776757,-0.66856 0.9143852,-1.23247 0.9704621,-1.25311 0.3072757,-0.11338 0.8872595,0.90596 1.0002448,1.75767 l 0.068976,0.51995 -1.0862216,0.89757 c -1.6201064,1.33874 -2.280579,2.21994 -2.6090276,3.48094 -0.086778,0.33298 -0.2344064,0.69041 -0.3280253,0.79389 -0.093619,0.10356 -0.555039,0.34318 -1.0253333,0.5328 -1.08121369,0.43586 -1.29451141,0.71811 -1.22134351,1.61636 0.0275906,0.33675 0.0340158,0.61258 0.0143622,0.61258 -0.0196536,0 -0.1348536,-0.26532 -0.25625207,-0.58994 z m 59.83200226,0.004 c 0.06856,-0.92905 -0.136819,-1.20469 -1.224076,-1.64297 -0.470291,-0.18973 -0.932107,-0.4298 -1.026248,-0.53382 -0.09415,-0.10393 -0.260901,-0.51277 -0.370583,-0.90829 -0.348548,-1.25704 -1.508731,-2.65973 -3.176913,-3.84102 -0.510607,-0.36171 -0.562791,-0.61592 -0.303307,-1.47814 0.165316,-0.54932 0.63535,-1.23727 0.845348,-1.23727 0.07317,0 0.438758,0.44115 0.812417,0.98037 0.373682,0.53919 1.46888,1.96366 2.433821,3.16547 0.96494,1.20186 1.866471,2.42665 2.003399,2.72179 0.525907,1.1336 0.574738,2.07459 0.154999,2.98697 l -0.196044,0.42614 z M 7.2340805,165.55139 c 0,-0.0189 -0.052082,-0.31824 -0.115767,-0.66584 -0.1433575,-0.78278 -0.5353665,-1.52587 -0.9523959,-1.80526 -0.173934,-0.11641 -0.3163466,-0.26759 -0.3164978,-0.33562 -6.652e-4,-0.32579 2.0102823,-1.57912 3.5686577,-2.22387 1.0907535,-0.45128 2.9280385,-0.94035 4.2512595,-1.13167 1.150542,-0.1663 1.288483,-0.085 1.193398,0.70511 -0.208555,1.73265 -0.242608,1.89906 -0.414342,2.02465 -0.09948,0.0726 -0.691855,0.16101 -1.326604,0.19767 -2.421971,0.13985 -3.6077265,0.74914 -5.0629699,2.60089 -0.2885293,0.36699 -0.5921086,0.6675 -0.6746535,0.6675 -0.082545,0 -0.1500851,-0.0151 -0.1500851,-0.034 z m 45.2440745,-0.57888 c -1.438031,-1.86466 -2.690952,-2.5161 -5.108127,-2.65583 -0.630766,-0.0378 -1.226824,-0.12473 -1.32457,-0.19616 -0.17401,-0.12737 -0.261506,-0.55533 -0.417408,-2.04299 -0.0683,-0.65174 -0.06546,-0.66123 0.218722,-0.73255 0.651356,-0.16365 3.733105,0.5438 5.315854,1.22004 1.154072,0.49307 2.698164,1.37733 3.195762,1.83016 l 0.337588,0.30727 -0.413742,0.39617 c -0.447825,0.42883 -0.91437,1.31324 -0.918376,1.74089 -0.0042,0.42785 -0.12,0.74578 -0.272126,0.74578 -0.07763,0 -0.353726,-0.27553 -0.613573,-0.61259 z m -22.659083,-1.1882 c -0.146872,-0.0465 -0.414807,-0.16101 -0.595427,-0.25437 -0.865992,-0.44783 -2.371518,-2.60938 -2.110731,-3.03046 0.281122,-0.454 0.615542,-0.5077 3.132992,-0.50351 2.562823,0.004 2.895157,0.0593 3.102959,0.51557 0.09914,0.2177 0.06399,0.35754 -0.226961,0.90342 -0.424962,0.79729 -1.384808,1.87438 -1.908465,2.14152 -0.485749,0.24793 -1.043483,0.33902 -1.394374,0.2279 z m -2.076768,-4.81478 c -2.428011,-0.19843 -9.565172,-1.48404 -10.274438,-1.8508 -0.504809,-0.26117 -0.674416,-0.71142 -0.730073,-1.9386 -0.147213,-3.24563 1.194426,-6.62411 3.551518,-8.94342 1.917748,-1.88701 3.021325,-2.19288 6.494168,-1.80008 1.776114,0.20107 5.148743,0.20107 6.924853,0 3.473255,-0.39288 4.579521,-0.0862 6.492224,1.80008 1.511732,1.4908 2.634974,3.47758 3.229158,5.71174 0.228699,0.85999 0.270954,1.26032 0.281083,2.66343 0.01323,1.84656 -0.08186,2.19398 -0.686865,2.50685 -0.380266,0.19653 -5.484767,1.22389 -7.616539,1.53275 -2.882004,0.4176 -5.246122,0.51568 -7.665104,0.31823 z m -12.784348,-8.52201 c -0.644542,-0.41991 -1.437045,-0.89201 -1.761117,-1.04905 -0.833563,-0.40399 -1.210866,-0.70805 -1.485956,-1.1975 -0.215924,-0.38415 -0.23399,-0.52691 -0.184214,-1.45542 0.03024,-0.56621 0.203112,-1.94034 0.383951,-3.05364 0.394957,-2.43152 0.556918,-4.32778 0.451975,-5.29194 l -0.07737,-0.71089 0.354633,0.31143 c 0.438762,0.38525 0.713957,0.39455 0.951421,0.034 0.234029,-0.35717 0.453786,-1.40383 0.46704,-2.22433 0.0057,-0.3515 0.06962,-0.80323 0.142073,-1.00369 l 0.131754,-0.36435 0.242571,0.39247 c 0.317896,0.51431 0.618039,0.68008 0.8363,0.46182 0.08897,-0.0888 0.273827,-0.58133 0.410755,-1.0941 0.136932,-0.51277 0.294161,-0.9775 0.34938,-1.03276 0.06289,-0.0627 0.165694,0.0265 0.274961,0.23698 0.406945,0.78697 0.8677,0.91816 2.080853,0.59251 0.638748,-0.17159 1.570682,-0.20787 1.788383,-0.0695 0.09475,0.0601 -0.0038,0.14854 -0.319597,0.28611 -0.808903,0.35301 -1.609872,0.91453 -2.410232,1.68968 -1.609275,1.55864 -2.408403,3.16123 -3.817801,7.65634 -0.604343,1.92749 -0.71082,2.38413 -0.718428,3.08122 -0.0083,0.76029 0.01247,0.84087 0.294577,1.13541 0.166904,0.17424 0.598393,0.45158 0.958828,0.61595 0.56575,0.25814 0.820256,0.30463 1.861724,0.34129 0.922236,0.034 1.220233,0.0782 1.265183,0.19541 0.03213,0.0843 -0.08602,0.47452 -0.263056,0.86721 -0.177033,0.39265 -0.366538,0.85776 -0.421111,1.03355 -0.166791,0.53703 -0.478624,0.47032 -1.787403,-0.38234 z m 28.815411,0.48193 c -0.05715,-0.15043 -0.103899,-0.30237 -0.103899,-0.33789 0,-0.034 -0.149858,-0.3896 -0.332976,-0.78694 -0.183156,-0.39734 -0.30652,-0.79139 -0.274205,-0.87568 0.04494,-0.11716 0.342954,-0.16327 1.265189,-0.1954 1.041465,-0.0378 1.295971,-0.0831 1.861721,-0.34129 0.360454,-0.16441 0.791909,-0.44156 0.958825,-0.61595 0.277342,-0.28989 0.30308,-0.38298 0.298583,-1.08216 -0.0042,-0.6348 -0.127333,-1.16178 -0.723693,-3.09452 -1.41834,-4.59667 -2.21875,-6.17923 -3.957863,-7.82544 -0.630474,-0.59679 -1.160595,-0.98268 -1.799002,-1.30961 -0.559114,-0.28611 -0.856827,-0.49417 -0.778784,-0.5438 0.207988,-0.13228 1.151721,-0.0918 1.777645,0.0763 1.209011,0.32466 1.674286,0.19351 2.07633,-0.58375 0.09351,-0.18066 0.211426,-0.30312 0.262034,-0.27175 0.05061,0.0302 0.201071,0.46972 0.334375,0.97437 0.374665,1.41819 0.678864,1.61692 1.215829,0.79426 0.117204,-0.17952 0.24533,-0.32655 0.284712,-0.32693 0.140939,-6e-4 0.283314,0.70867 0.338835,1.68817 0.04214,0.74309 0.118904,1.12176 0.3024,1.49151 0.312681,0.63001 0.569417,0.67919 1.102474,0.21128 0.379585,-0.33335 0.394053,-0.33713 0.308674,-0.0858 -0.186369,0.54875 -0.06697,2.80721 0.270236,5.11114 0.184366,1.25979 0.37911,2.48228 0.432749,2.71669 0.05363,0.23433 0.09846,0.80965 0.09959,1.27842 0.003,1.25507 -0.303005,1.69349 -1.658533,2.37619 -0.357279,0.17991 -1.169745,0.66573 -1.8055,1.07955 -1.260711,0.82065 -1.591563,0.91094 -1.755731,0.47917 z m -16.845253,-7.55948 c -1.879805,-0.25663 -2.169003,-0.64297 -1.73483,-2.31847 0.247824,-0.95637 0.636616,-1.64353 1.309614,-2.31462 1.985338,-1.97972 5.501914,-1.98241 7.478596,-0.004 0.851959,0.85194 1.480079,2.26749 1.483423,3.34307 0.0027,0.84706 -0.361171,1.08359 -2.002889,1.30212 -1.423809,0.18973 -5.124505,0.18595 -6.533914,-0.008 z m -0.888257,-6.14011 c -1.531666,-1.39986 -2.710368,-3.88169 -2.756309,-5.80361 -0.0087,-0.36284 0.01323,-0.68882 0.04887,-0.72473 0.126916,-0.12812 0.367068,0.0612 0.73437,0.57891 0.425159,0.5994 0.567432,0.68512 0.869133,0.52366 0.117959,-0.0631 0.234897,-0.0945 0.259842,-0.0695 0.02494,0.0265 -0.0057,0.41201 -0.06796,0.86011 -0.216453,1.55618 0.10783,2.42298 1.404088,3.75341 0.460626,0.47275 0.837498,0.91068 0.837498,0.97319 0,0.12246 -0.459421,0.45778 -0.62688,0.45778 -0.05594,0 -0.372133,-0.24718 -0.70269,-0.54928 z m 7.322233,0.37078 c -0.13183,-0.0918 -0.239698,-0.21808 -0.239698,-0.28007 0,-0.062 0.376857,-0.49969 0.837498,-0.97247 0.460626,-0.47274 0.936227,-1.05392 1.056896,-1.2915 0.350892,-0.69083 0.474086,-1.6054 0.336076,-2.49502 -0.06527,-0.42078 -0.09456,-0.7892 -0.06508,-0.81868 0.02948,-0.0302 0.162406,0.004 0.29537,0.0756 0.254816,0.13644 0.290343,0.10809 1.12676,-0.8987 0.127408,-0.15345 0.278023,-0.27893 0.334678,-0.27893 0.186444,0 0.235389,0.50789 0.125178,1.29891 -0.278174,1.99623 -1.308598,4.00177 -2.717829,5.28975 -0.651606,0.59554 -0.729718,0.62211 -1.089869,0.37078 z"
       id="path12" />
  </g>
</svg>
